<svg version="1.1" id="Layer_1" xmlns="http://www.w3.org/2000/svg" xmlns:xlink="http://www.w3.org/1999/xlink" x="0px" y="0px"
	 width="100%" viewBox="0 0 192 192" enable-background="new 0 0 192 192" xml:space="preserve">
<path fill="#FDFDFE" opacity="1.000000" stroke="none" 
	d="
M119.000000,193.000000 
	C79.358849,193.000000 40.217690,193.000000 1.038267,193.000000 
	C1.038267,129.067215 1.038267,65.134407 1.038267,1.100798 
	C64.890968,1.100798 128.782150,1.100798 192.836670,1.100798 
	C192.836670,64.999664 192.836670,128.999802 192.836670,193.000000 
	C168.468033,193.000000 143.984009,193.000000 119.000000,193.000000 
M78.718033,124.424324 
	C79.771492,124.313957 80.824944,124.203583 81.878403,124.093224 
	C81.752151,123.513748 81.625908,122.934273 81.499664,122.354797 
	C80.976860,122.576508 80.454063,122.798225 79.526535,123.229012 
	C79.275887,123.419647 79.103722,123.665314 78.718033,124.424324 
M56.577042,96.623505 
	C56.577042,96.623505 56.616936,96.625969 56.109615,97.067177 
	C56.079689,98.869041 56.049759,100.670898 55.926594,103.011513 
	C56.031437,103.160583 56.136280,103.309662 56.436111,103.985092 
	C58.377018,107.586082 61.904034,106.680710 65.256561,107.652046 
	C67.183060,113.287521 71.624931,114.827545 77.600609,114.828545 
	C78.068542,114.548203 78.536469,114.267860 79.183731,114.674934 
	C81.544113,114.333298 84.969070,114.804344 86.002922,113.450058 
	C87.381714,111.643890 87.901680,108.020859 87.046135,105.873062 
	C83.505699,96.985054 79.416809,88.307243 75.314651,79.654015 
	C72.320885,73.338875 67.468002,73.161392 62.756649,79.855232 
	C62.576962,80.395775 62.397274,80.936317 62.279049,81.546722 
	C62.279049,81.546722 62.217197,81.616234 62.177372,81.686455 
	C62.177372,81.686455 62.096909,81.693016 61.394291,81.836639 
	C60.616837,82.995766 59.839382,84.154900 58.530926,85.120651 
	C58.343628,85.140755 58.156334,85.160851 57.273033,84.739098 
	C57.970280,78.783905 58.667530,72.828712 59.410542,66.482666 
	C58.247864,66.170410 56.936054,65.818108 54.726528,65.224701 
	C54.726528,74.605804 54.658417,83.286064 54.831898,91.961494 
	C54.849239,92.828911 56.334290,93.666985 57.102524,95.267982 
	C57.099915,95.518013 57.097305,95.768044 56.734310,96.209129 
	C56.734310,96.209129 56.572945,96.583740 56.577042,96.623505 
M91.052048,81.954231 
	C91.052048,81.954231 91.190781,81.828079 91.070778,82.609734 
	C91.713860,83.741577 92.356949,84.873413 93.393440,86.473640 
	C93.926926,85.640121 94.460411,84.806602 95.793930,83.953575 
	C96.860458,83.950577 97.926979,83.947578 99.044708,84.548897 
	C99.437935,85.159218 99.831169,85.769539 100.224396,86.379860 
	C100.780205,85.701645 101.336014,85.023438 102.682426,84.337921 
	C108.195061,81.654099 109.983482,75.194443 106.109299,68.919922 
	C105.750366,66.924461 105.248695,64.942337 105.060783,62.930897 
	C104.601463,58.014057 101.286415,54.790405 96.669174,54.955036 
	C92.250801,55.112579 89.198395,58.295856 88.961983,63.012024 
	C88.879036,64.666893 88.832054,66.323563 87.997086,68.012398 
	C84.188522,70.097801 83.705956,74.893356 86.813095,78.496124 
	C86.784477,78.888245 86.755867,79.280357 86.727257,79.672485 
	C87.202522,79.458755 87.677780,79.245033 88.641350,79.000000 
	C88.641350,79.000000 89.127716,78.946426 89.590416,79.339211 
	C89.888329,79.868607 90.186241,80.398003 89.960770,81.075188 
	C90.361115,81.317528 90.761459,81.559860 91.052048,81.954231 
M138.240005,101.257027 
	C138.183151,100.495171 138.126297,99.733307 138.174667,98.294235 
	C137.803864,97.078369 137.433075,95.862511 137.791061,94.617210 
	C141.515579,84.922272 140.198410,75.246155 138.419739,65.509346 
	C134.359695,65.764763 133.878448,67.253914 134.545761,70.471985 
	C135.631363,75.707283 135.909637,81.109993 136.528656,86.442055 
	C136.098038,86.456268 135.667404,86.470474 135.236786,86.484688 
	C134.106628,84.665245 132.976471,82.845795 131.678848,80.399460 
	C130.831085,80.245941 129.983307,80.092422 129.232437,79.281937 
	C127.941154,77.844727 126.622108,75.210495 125.364838,75.239662 
	C123.270401,75.288231 120.154266,76.509521 119.319977,78.168304 
	C114.658478,87.436539 110.303123,96.881531 106.352676,106.475914 
	C104.054909,112.056458 107.738297,115.898766 114.765205,115.025024 
	C115.511932,114.954010 116.258667,114.882996 117.776947,114.978691 
	C123.499733,114.498177 127.657417,112.040268 129.547119,105.972366 
	C129.714203,105.923866 129.881302,105.875374 130.765579,105.994476 
	C131.499680,105.965118 132.233765,105.935768 133.694580,106.062752 
	C135.125778,104.707222 136.556961,103.351692 138.240005,101.257027 
M47.925282,145.687286 
	C50.190704,144.521011 53.172535,143.903793 54.573895,142.075302 
	C57.583626,138.148209 55.155643,131.290024 46.253254,131.939606 
	C45.536861,131.943436 44.820465,131.947250 43.232815,131.970398 
	C41.303143,131.970398 39.373470,131.970398 37.588318,131.970398 
	C37.588318,139.624542 37.588318,146.780487 37.069408,154.051849 
	C36.887177,154.513596 36.704948,154.975327 36.522713,155.437057 
	C37.009502,155.309006 37.496288,155.180954 38.846958,155.059280 
	C40.575115,155.071121 42.303272,155.082947 44.525135,155.597260 
	C45.854012,155.597260 47.182884,155.597260 48.511761,155.597260 
	C48.495182,155.174789 48.478603,154.752319 48.462029,154.329865 
	C47.218975,154.179977 45.975922,154.030090 44.405552,153.065750 
	C44.541737,150.758987 44.677917,148.452209 45.411434,146.087311 
	C46.021526,146.012650 46.631615,145.938004 47.925282,145.687286 
M66.150330,153.975525 
	C65.513985,153.971252 64.877640,153.966965 63.942684,153.084305 
	C63.942684,148.834381 63.942684,144.584457 63.942684,140.263245 
	C59.673225,139.257675 58.004322,141.794342 57.200512,145.032684 
	C55.837597,150.523514 58.288292,154.007446 64.705231,155.920746 
	C65.351784,155.842026 65.998344,155.763306 67.422859,155.395309 
	C72.762421,153.890533 75.268272,149.776428 73.807045,144.545303 
	C72.870712,141.193253 71.084656,138.868454 67.691460,140.235001 
	C67.369301,145.124924 67.078003,149.546448 66.150330,153.975525 
M101.256371,139.266846 
	C97.464455,140.166382 95.090912,142.244675 94.906250,146.426025 
	C94.740952,150.169052 95.303284,153.451721 99.248962,155.031647 
	C100.068977,155.359985 101.014450,155.375015 101.902107,155.534424 
	C101.952415,154.671204 102.038490,153.808319 102.046982,152.944687 
	C102.088570,148.718063 102.109474,144.491211 102.877068,140.079605 
	C103.458344,140.797485 104.215775,141.436600 104.580025,142.251495 
	C105.140900,143.506226 105.432091,144.881500 105.837685,146.205627 
	C107.086746,145.730301 109.372810,145.290802 109.390701,144.772934 
	C109.444687,143.210480 109.071358,140.804138 108.029480,140.222290 
	C106.359344,139.289612 104.018715,139.557587 101.256371,139.266846 
M119.768005,154.789444 
	C121.946724,155.073364 124.125443,155.357300 125.994392,155.600845 
	C125.994392,151.711441 126.035507,148.487762 125.983788,145.265564 
	C125.921684,141.396439 124.278229,139.003922 119.203529,139.085892 
	C117.889374,139.155518 116.159935,138.728851 115.352699,139.404297 
	C113.933739,140.591614 113.078903,142.453125 111.987816,144.032272 
	C112.984474,144.669662 113.981125,145.307053 114.977791,145.944443 
	C115.757309,144.557083 116.419418,143.081604 117.366264,141.819809 
	C117.833733,141.196838 118.826714,140.968201 119.610283,141.327164 
	C119.689766,143.126434 119.769249,144.925720 119.190712,146.954376 
	C118.760437,147.129150 118.330162,147.303925 117.189857,147.353119 
	C114.179237,147.807571 110.725349,148.141541 111.196915,152.309509 
	C111.571686,155.621964 114.421013,155.523560 117.735718,155.094360 
	C118.168083,154.900360 118.600449,154.706345 119.768005,154.789444 
M85.505478,129.978653 
	C85.220551,130.063492 84.935616,130.148315 84.650688,130.233154 
	C84.912537,130.505463 85.174385,130.777786 85.731308,131.935303 
	C85.787430,138.041458 85.909821,144.147964 85.879555,150.253677 
	C85.853416,155.528641 86.346970,155.901779 91.698448,154.248520 
	C91.698448,146.289856 91.698448,138.396774 91.698448,130.350311 
	C89.581665,130.219788 87.782700,130.108841 85.505478,129.978653 
M111.538231,32.933258 
	C89.517609,24.744135 66.237877,35.576874 58.147102,58.081532 
	C59.547245,58.714703 60.975636,59.360641 62.404022,60.006584 
	C62.137928,59.580044 61.871834,59.153507 61.605740,58.726967 
	C67.082817,53.095531 71.815994,46.369793 78.180229,42.043377 
	C95.410927,30.329931 117.371262,36.773327 128.929276,56.050461 
	C130.069366,57.951977 131.205566,60.281506 133.629852,58.581532 
	C134.488800,57.979210 134.541306,54.960400 133.849854,53.617367 
	C129.068726,44.330791 122.176987,37.124313 111.538231,32.933258 
M151.669174,152.458069 
	C152.294678,148.055771 148.449341,142.664032 153.343155,139.766327 
	C152.347366,138.069153 151.212814,136.135452 149.623810,133.427216 
	C148.175781,134.528000 145.467224,135.578110 145.362503,136.843704 
	C144.939865,141.951035 144.947708,147.167862 145.535385,152.258957 
	C145.927643,155.657043 148.998276,155.998718 151.669174,152.458069 
M81.945374,148.375519 
	C82.152031,145.374496 82.358696,142.373489 82.565315,139.373108 
	C77.360291,139.159119 74.831581,141.795624 75.019966,147.747925 
	C75.199295,153.413956 77.603897,155.683609 82.667152,155.014679 
	C82.426712,153.093872 82.186516,151.174988 81.945374,148.375519 
M138.215134,151.179214 
	C138.534637,152.381851 138.854141,153.584488 139.628250,156.498367 
	C140.966400,153.420654 142.585892,151.432312 142.392181,149.639938 
	C142.208328,147.938858 140.379486,146.102890 138.817337,144.939423 
	C136.674179,143.343201 134.100266,142.325317 131.315125,140.849915 
	C131.244980,140.953888 130.476700,141.668213 130.228546,142.531967 
	C128.959702,146.948380 130.283813,148.431137 138.215134,151.179214 
M75.050262,126.185913 
	C75.151115,126.307419 75.237450,126.447250 75.358582,126.543137 
	C75.424812,126.595566 75.549889,126.573654 75.648438,126.585258 
	C75.606033,125.794907 75.563629,125.004555 75.521217,124.214203 
	C75.349236,124.624069 75.177254,125.033943 75.050262,126.185913 
M76.602707,122.362297 
	C76.498726,122.142197 76.394745,121.922096 76.290764,121.701996 
	C76.086395,121.903168 75.882034,122.104332 75.677666,122.305496 
	C75.893661,122.419533 76.109650,122.533562 76.602707,122.362297 
M136.318542,63.536934 
	C136.129089,63.499447 135.939651,63.461964 135.750198,63.424473 
	C135.879333,63.407539 136.008484,63.390602 136.318542,63.536934 
z"/>
<path fill="#090909" opacity="1.000000" stroke="none" 
	d="
M131.846313,81.026344 
	C132.976471,82.845795 134.106628,84.665245 135.236786,86.484688 
	C135.667404,86.470474 136.098038,86.456268 136.528656,86.442055 
	C135.909637,81.109993 135.631363,75.707283 134.545761,70.471985 
	C133.878448,67.253914 134.359695,65.764763 138.419739,65.509346 
	C140.198410,75.246155 141.515579,84.922272 137.453217,94.300720 
	C136.783157,93.191460 136.450912,92.398705 136.118668,91.605949 
	C135.120193,93.058540 134.121719,94.511139 132.912872,96.096268 
	C133.125153,96.823929 133.547836,97.419052 133.825729,98.262733 
	C133.104553,98.790367 132.528168,99.069427 131.902206,99.372498 
	C132.519882,99.883064 133.122269,100.381004 134.426834,101.459381 
	C129.369919,100.369118 130.006882,103.949715 129.034088,106.068733 
	C127.657417,112.040268 123.499733,114.498177 117.440163,114.538635 
	C117.981544,111.576164 118.859703,109.053734 119.737862,106.531311 
	C119.252380,106.308510 118.766891,106.085701 118.281403,105.862900 
	C116.856422,108.963799 115.431442,112.064705 114.006454,115.165611 
	C107.738297,115.898766 104.054909,112.056458 106.352676,106.475914 
	C110.303123,96.881531 114.658478,87.436539 119.319977,78.168304 
	C120.154266,76.509521 123.270401,75.288231 125.364838,75.239662 
	C126.622108,75.210495 127.941154,77.844727 128.885406,79.849762 
	C127.405998,84.288704 126.273598,88.159821 125.141197,92.030937 
	C125.439575,92.134659 125.737946,92.238373 126.036324,92.342094 
	C127.972992,88.570183 129.909653,84.798264 131.846313,81.026344 
M119.324234,104.113045 
	C122.138023,103.465187 123.468727,100.789223 122.517212,95.684807 
	C121.139130,99.019005 120.226395,101.227318 119.324234,104.113045 
M123.695168,95.592957 
	C123.991570,95.372192 124.287964,95.151436 124.584366,94.930672 
	C124.403732,94.741707 124.223106,94.552750 124.042473,94.363785 
	C123.809113,94.650566 123.575760,94.937340 123.695168,95.592957 
z"/>
<path fill="#080808" opacity="1.000000" stroke="none" 
	d="
M76.992622,114.860168 
	C71.624931,114.827545 67.183060,113.287521 65.128288,106.989563 
	C64.673637,105.551849 64.347267,104.776619 64.009979,103.655388 
	C63.347626,102.131958 62.696182,100.954529 62.025604,99.574280 
	C62.006462,99.371452 61.979778,98.964867 61.961491,98.620880 
	C60.982777,93.955940 60.022354,89.634987 59.061928,85.314026 
	C59.839382,84.154900 60.616837,82.995766 62.035194,82.094925 
	C63.494194,83.118256 64.312286,83.883293 65.130386,84.648331 
	C65.578934,84.294296 66.027481,83.940254 66.476028,83.586212 
	C65.373772,82.055244 64.271523,80.524269 63.169266,78.993294 
	C67.468002,73.161392 72.320885,73.338875 75.314651,79.654015 
	C79.416809,88.307243 83.505699,96.985054 87.046135,105.873062 
	C87.901680,108.020859 87.381714,111.643890 86.002922,113.450058 
	C84.969070,114.804344 81.544113,114.333298 79.098801,113.966354 
	C77.775314,111.207825 76.536751,109.157860 75.298195,107.107903 
	C74.945808,107.309952 74.593430,107.511993 74.241051,107.714043 
	C75.158241,110.096085 76.075432,112.478127 76.992622,114.860168 
M71.933495,99.419579 
	C71.538277,99.106201 71.143051,98.792824 70.747826,98.479454 
	C70.655075,98.737961 70.439034,99.193314 70.488716,99.224434 
	C70.966805,99.523880 71.489655,99.751869 71.996765,100.781883 
	C72.472206,102.438461 72.947647,104.095039 73.423088,105.751617 
	C74.119049,105.406570 74.815002,105.061523 75.510956,104.716476 
	C74.340744,103.144218 73.170525,101.571953 71.933495,99.419579 
M66.938667,87.408913 
	C66.538193,87.087509 66.137726,86.766106 65.737251,86.444702 
	C65.640785,86.707787 65.417557,87.171265 65.467514,87.202873 
	C65.952477,87.509644 66.483223,87.744041 66.824738,88.485245 
	C67.473618,90.547646 68.122505,92.610046 68.771393,94.672440 
	C70.016228,91.820282 70.581009,89.219269 66.938667,87.408913 
z"/>
<path fill="#0D0D0D" opacity="1.000000" stroke="none" 
	d="
M111.912354,33.043167 
	C122.176987,37.124313 129.068726,44.330791 133.849854,53.617367 
	C134.541306,54.960400 134.488800,57.979210 133.629852,58.581532 
	C131.205566,60.281506 130.069366,57.951977 128.929276,56.050461 
	C117.371262,36.773327 95.410927,30.329931 78.180229,42.043377 
	C71.815994,46.369793 67.082817,53.095531 61.605740,58.726967 
	C61.871834,59.153507 62.137928,59.580044 62.404022,60.006584 
	C60.975636,59.360641 59.547245,58.714703 58.147102,58.081532 
	C66.237877,35.576874 89.517609,24.744135 111.912354,33.043167 
z"/>
<path fill="#746BFF" opacity="1.000000" stroke="none" 
	d="
M90.484154,80.927399 
	C90.186241,80.398003 89.888329,79.868607 89.349731,78.717056 
	C88.995575,74.723076 88.882111,71.351242 88.768646,67.979408 
	C88.832054,66.323563 88.879036,64.666893 88.961983,63.012024 
	C89.198395,58.295856 92.250801,55.112579 96.669174,54.955036 
	C101.286415,54.790405 104.601463,58.014057 105.060783,62.930897 
	C105.248695,64.942337 105.750366,66.924461 106.280807,69.303284 
	C105.962547,70.458572 105.267052,71.169846 105.018578,72.012886 
	C103.934479,75.691147 102.980240,79.407669 101.653450,83.061028 
	C100.549866,83.322693 99.771690,83.633636 98.993507,83.944580 
	C97.926979,83.947578 96.860458,83.950577 95.185867,83.839294 
	C94.577797,83.725014 94.128563,83.543526 93.923615,83.338242 
	C92.876030,82.697998 92.033401,82.263039 91.190781,81.828079 
	C91.190781,81.828079 91.052048,81.954231 91.061905,81.685410 
	C90.957062,81.155968 90.761192,80.992897 90.484154,80.927399 
z"/>
<path fill="#6F66FF" opacity="1.000000" stroke="none" 
	d="
M85.983734,129.997910 
	C87.782700,130.108841 89.581665,130.219788 91.698448,130.350311 
	C91.698448,138.396774 91.698448,146.289856 91.698448,154.248520 
	C86.346970,155.901779 85.853416,155.528641 85.879555,150.253677 
	C85.909821,144.147964 85.787430,138.041458 85.739380,131.238846 
	C85.826210,130.360886 85.904976,130.179398 85.983734,129.997910 
z"/>
<path fill="#7168FF" opacity="1.000000" stroke="none" 
	d="
M120.035194,139.197479 
	C124.278229,139.003922 125.921684,141.396439 125.983788,145.265564 
	C126.035507,148.487762 125.994392,151.711441 125.994392,155.600845 
	C124.125443,155.357300 121.946724,155.073364 119.322525,154.380493 
	C118.259895,154.364410 117.642738,154.757248 117.025581,155.150101 
	C114.421013,155.523560 111.571686,155.621964 111.196915,152.309509 
	C110.725349,148.141541 114.179237,147.807571 117.512062,147.684448 
	C118.002441,148.589325 118.170609,149.162842 118.338791,149.736374 
	C118.842110,148.732590 119.345421,147.728790 119.848740,146.724991 
	C119.769249,144.925720 119.689766,143.126434 119.738098,140.611176 
	C119.922340,139.662628 119.978767,139.430054 120.035194,139.197479 
z"/>
<path fill="#6E65FF" opacity="1.000000" stroke="none" 
	d="
M44.814098,146.145447 
	C44.677917,148.452209 44.541737,150.758987 44.391003,153.775635 
	C44.261444,154.688599 44.146439,154.891693 44.031429,155.094772 
	C42.303272,155.082947 40.575115,155.071121 38.313141,154.778091 
	C37.715652,154.310074 37.651985,154.123245 37.588318,153.936432 
	C37.588318,146.780487 37.588318,139.624542 37.588318,131.970398 
	C39.373470,131.970398 41.303143,131.970398 43.725883,132.427826 
	C44.417332,137.305313 44.615715,141.725388 44.814098,146.145447 
z"/>
<path fill="#746CFF" opacity="1.000000" stroke="none" 
	d="
M151.735428,152.883194 
	C148.998276,155.998718 145.927643,155.657043 145.535385,152.258957 
	C144.947708,147.167862 144.939865,141.951035 145.362503,136.843704 
	C145.467224,135.578110 148.175781,134.528000 149.623810,133.427216 
	C151.212814,136.135452 152.347366,138.069153 153.343155,139.766327 
	C148.449341,142.664032 152.294678,148.055771 151.735428,152.883194 
z"/>
<path fill="#101010" opacity="1.000000" stroke="none" 
	d="
M57.138168,94.518684 
	C56.334290,93.666985 54.849239,92.828911 54.831898,91.961494 
	C54.658417,83.286064 54.726528,74.605804 54.726528,65.224701 
	C56.936054,65.818108 58.247864,66.170410 59.410542,66.482666 
	C58.667530,72.828712 57.970280,78.783905 57.575386,85.285812 
	C57.631214,88.727905 57.384689,91.623299 57.138168,94.518684 
z"/>
<path fill="#776EFF" opacity="1.000000" stroke="none" 
	d="
M81.945847,148.815811 
	C82.186516,151.174988 82.426712,153.093872 82.667152,155.014679 
	C77.603897,155.683609 75.199295,153.413956 75.019966,147.747925 
	C74.831581,141.795624 77.360291,139.159119 82.565315,139.373108 
	C82.358696,142.373489 82.152031,145.374496 81.945847,148.815811 
z"/>
<path fill="#7870FF" opacity="1.000000" stroke="none" 
	d="
M137.854980,151.052582 
	C130.283813,148.431137 128.959702,146.948380 130.228546,142.531967 
	C130.476700,141.668213 131.244980,140.953888 131.315125,140.849915 
	C134.100266,142.325317 136.674179,143.343201 138.817337,144.939423 
	C140.379486,146.102890 142.208328,147.938858 142.392181,149.639938 
	C142.585892,151.432312 140.966400,153.420654 139.628250,156.498367 
	C138.854141,153.584488 138.534637,152.381851 137.854980,151.052582 
z"/>
<path fill="#7C74FF" opacity="1.000000" stroke="none" 
	d="
M64.372543,155.709320 
	C58.288292,154.007446 55.837597,150.523514 57.200512,145.032684 
	C58.004322,141.794342 59.673225,139.257675 63.942684,140.263245 
	C63.942684,144.584457 63.942684,148.834381 64.086136,153.963089 
	C64.277237,155.131027 64.324890,155.420181 64.372543,155.709320 
z"/>
<path fill="#7269FF" opacity="1.000000" stroke="none" 
	d="
M102.137695,140.264450 
	C102.109474,144.491211 102.088570,148.718063 102.046982,152.944687 
	C102.038490,153.808319 101.952415,154.671204 101.902107,155.534424 
	C101.014450,155.375015 100.068977,155.359985 99.248962,155.031647 
	C95.303284,153.451721 94.740952,150.169052 94.906250,146.426025 
	C95.090912,142.244675 97.464455,140.166382 101.637291,139.531860 
	C102.018211,139.796860 102.137695,140.264450 102.137695,140.264450 
z"/>
<path fill="#766DFF" opacity="1.000000" stroke="none" 
	d="
M66.786705,153.967957 
	C67.078003,149.546448 67.369301,145.124924 67.691460,140.235001 
	C71.084656,138.868454 72.870712,141.193253 73.807045,144.545303 
	C75.268272,149.776428 72.762421,153.890533 67.116043,155.113174 
	C66.801720,154.543350 66.794212,154.255661 66.786705,153.967957 
z"/>
<path fill="#776EFF" opacity="1.000000" stroke="none" 
	d="
M46.968681,131.986252 
	C55.155643,131.290024 57.583626,138.148209 54.573895,142.075302 
	C53.172535,143.903793 50.190704,144.521011 47.549679,145.409393 
	C49.343430,140.714767 49.725430,136.325989 46.968681,131.986252 
z"/>
<path fill="#303030" opacity="1.000000" stroke="none" 
	d="
M129.290604,106.020554 
	C130.006882,103.949715 129.369919,100.369118 134.426834,101.459381 
	C133.122269,100.381004 132.519882,99.883064 131.902206,99.372498 
	C132.528168,99.069427 133.104553,98.790367 133.838821,98.020187 
	C133.996704,97.529083 134.006592,97.043633 134.192169,96.944969 
	C134.246536,96.557236 134.115326,96.268158 133.768951,95.972359 
	C133.553787,95.965630 133.123245,95.963737 133.123245,95.963737 
	C134.121719,94.511139 135.120193,93.058540 136.118668,91.605949 
	C136.450912,92.398705 136.783157,93.191460 137.088837,94.315430 
	C137.433075,95.862511 137.803864,97.078369 137.837128,98.783661 
	C137.662445,100.180779 137.825302,101.088470 137.988159,101.996162 
	C136.556961,103.351692 135.125778,104.707222 133.174377,105.737625 
	C131.785583,105.550621 130.916992,105.688751 130.048416,105.826874 
	C129.881302,105.875374 129.714203,105.923866 129.290604,106.020554 
z"/>
<path fill="#E5E4FF" opacity="1.000000" stroke="none" 
	d="
M46.610970,131.962921 
	C49.725430,136.325989 49.343430,140.714767 47.207890,145.497421 
	C46.631615,145.938004 46.021526,146.012650 45.112766,146.116379 
	C44.615715,141.725388 44.417332,137.305313 44.161510,132.418167 
	C44.820465,131.947250 45.536861,131.943436 46.610970,131.962921 
z"/>
<path fill="#928BFF" opacity="1.000000" stroke="none" 
	d="
M101.978851,83.110306 
	C102.980240,79.407669 103.934479,75.691147 105.018578,72.012886 
	C105.267052,71.169846 105.962547,70.458572 106.672043,69.410339 
	C109.983482,75.194443 108.195061,81.654099 102.318207,84.032257 
	C101.962280,83.521164 101.970566,83.315735 101.978851,83.110306 
z"/>
<path fill="#827BFF" opacity="1.000000" stroke="none" 
	d="
M102.507385,140.172028 
	C102.137695,140.264450 102.018211,139.796860 101.989838,139.557480 
	C104.018715,139.557587 106.359344,139.289612 108.029480,140.222290 
	C109.071358,140.804138 109.444687,143.210480 109.390701,144.772934 
	C109.372810,145.290802 107.086746,145.730301 105.837685,146.205627 
	C105.432091,144.881500 105.140900,143.506226 104.580025,142.251495 
	C104.215775,141.436600 103.458344,140.797485 102.507385,140.172028 
z"/>
<path fill="#303030" opacity="1.000000" stroke="none" 
	d="
M57.120346,94.893333 
	C57.384689,91.623299 57.631214,88.727905 57.923386,85.506729 
	C58.156334,85.160851 58.343628,85.140755 58.796425,85.217339 
	C60.022354,89.634987 60.982777,93.955940 61.663536,98.658775 
	C60.916191,99.364601 60.448513,99.688560 59.989799,100.006073 
	C59.998772,99.999634 60.012592,99.982399 59.847145,100.065674 
	C59.784161,100.427261 59.886623,100.705574 59.994408,100.991592 
	C59.999722,100.999298 60.011520,101.013802 60.029724,101.253830 
	C60.047924,101.493866 60.020332,101.974518 60.010536,101.986336 
	C60.000744,101.998154 59.978905,102.021584 59.460136,102.051918 
	C58.041283,102.541084 57.141201,102.999908 56.241119,103.458740 
	C56.136280,103.309662 56.031437,103.160583 56.276058,102.321564 
	C56.622662,99.963074 56.619797,98.294518 56.616936,96.625969 
	C56.616936,96.625969 56.577042,96.623505 56.884060,96.722839 
	C57.782513,96.822182 58.373943,96.822182 58.965378,96.822182 
	C58.944324,96.608566 58.923275,96.394951 58.902222,96.181335 
	C58.299713,96.126915 57.697201,96.072502 57.094692,96.018082 
	C57.097305,95.768044 57.099915,95.518013 57.120346,94.893333 
z"/>
<path fill="#8981FF" opacity="1.000000" stroke="none" 
	d="
M119.619362,139.141693 
	C119.978767,139.430054 119.922340,139.662628 119.723907,140.228180 
	C118.826714,140.968201 117.833733,141.196838 117.366264,141.819809 
	C116.419418,143.081604 115.757309,144.557083 114.977783,145.944443 
	C113.981125,145.307053 112.984474,144.669662 111.987823,144.032272 
	C113.078903,142.453125 113.933739,140.591614 115.352699,139.404297 
	C116.159935,138.728851 117.889374,139.155518 119.619362,139.141693 
z"/>
<path fill="#F4F4FF" opacity="1.000000" stroke="none" 
	d="
M88.382866,67.995903 
	C88.882111,71.351242 88.995575,74.723076 89.118378,78.520668 
	C89.127716,78.946426 88.641350,79.000000 88.252556,78.790001 
	C87.573265,78.385956 87.282768,78.191910 86.992271,77.997871 
	C83.705956,74.893356 84.188522,70.097801 88.382866,67.995903 
z"/>
<path fill="#0E0E0E" opacity="1.000000" stroke="none" 
	d="
M131.762573,80.712906 
	C129.909653,84.798264 127.972992,88.570183 126.036324,92.342094 
	C125.737946,92.238373 125.439575,92.134659 125.141197,92.030937 
	C126.273598,88.159821 127.405998,84.288704 128.836975,80.178238 
	C129.983307,80.092422 130.831085,80.245941 131.762573,80.712906 
z"/>
<path fill="#101010" opacity="1.000000" stroke="none" 
	d="
M56.338615,103.721909 
	C57.141201,102.999908 58.041283,102.541084 59.479141,102.408646 
	C60.367203,106.269562 62.338463,104.678856 64.020889,104.001396 
	C64.347267,104.776619 64.673637,105.551849 65.000114,106.663246 
	C61.904034,106.680710 58.377018,107.586082 56.338615,103.721909 
z"/>
<path fill="#0E0E0E" opacity="1.000000" stroke="none" 
	d="
M114.385834,115.095322 
	C115.431442,112.064705 116.856422,108.963799 118.281403,105.862900 
	C118.766891,106.085701 119.252380,106.308510 119.737862,106.531311 
	C118.859703,109.053734 117.981544,111.576164 117.054382,114.455284 
	C116.258667,114.882996 115.511932,114.954010 114.385834,115.095322 
z"/>
<path fill="#101010" opacity="1.000000" stroke="none" 
	d="
M77.296616,114.844360 
	C76.075432,112.478127 75.158241,110.096085 74.241051,107.714043 
	C74.593430,107.511993 74.945808,107.309952 75.298195,107.107903 
	C76.536751,109.157860 77.775314,111.207825 79.009140,113.622650 
	C78.536469,114.267860 78.068542,114.548203 77.296616,114.844360 
z"/>
<path fill="#101010" opacity="1.000000" stroke="none" 
	d="
M62.962959,79.424263 
	C64.271523,80.524269 65.373772,82.055244 66.476028,83.586212 
	C66.027481,83.940254 65.578934,84.294296 65.130386,84.648331 
	C64.312286,83.883293 63.494194,83.118256 62.386505,82.023117 
	C62.096909,81.693016 62.177372,81.686455 62.455952,81.729141 
	C62.847107,81.703133 62.959682,81.634438 63.072258,81.565750 
	C62.787369,81.536125 62.502480,81.506493 62.217590,81.476860 
	C62.397274,80.936317 62.576962,80.395775 62.962959,79.424263 
z"/>
<path fill="#D4D1FF" opacity="1.000000" stroke="none" 
	d="
M91.130783,82.218903 
	C92.033401,82.263039 92.876030,82.697998 93.820412,83.665695 
	C93.614784,84.800705 93.307411,85.402985 93.000031,86.005257 
	C92.356949,84.873413 91.713860,83.741577 91.130783,82.218903 
z"/>
<path fill="#E5E4FF" opacity="1.000000" stroke="none" 
	d="
M44.278282,155.346008 
	C44.146439,154.891693 44.261444,154.688599 44.554665,154.182861 
	C45.975922,154.030090 47.218975,154.179977 48.462029,154.329865 
	C48.478603,154.752319 48.495182,155.174789 48.511761,155.597260 
	C47.182884,155.597260 45.854012,155.597260 44.278282,155.346008 
z"/>
<path fill="#101010" opacity="1.000000" stroke="none" 
	d="
M56.363274,96.846573 
	C56.619797,98.294518 56.622662,99.963074 56.322678,102.052193 
	C56.049759,100.670898 56.079689,98.869041 56.363274,96.846573 
z"/>
<path fill="#E6E5FF" opacity="1.000000" stroke="none" 
	d="
M101.653450,83.061028 
	C101.970566,83.315735 101.962280,83.521164 101.922913,84.035912 
	C101.336014,85.023438 100.780205,85.701645 100.224396,86.379860 
	C99.831169,85.769539 99.437935,85.159218 99.019104,84.246735 
	C99.771690,83.633636 100.549866,83.322693 101.653450,83.061028 
z"/>
<path fill="#CDCDCD" opacity="1.000000" stroke="none" 
	d="
M79.931259,123.019943 
	C80.454063,122.798225 80.976860,122.576508 81.499664,122.354797 
	C81.625908,122.934273 81.752151,123.513748 81.878403,124.093216 
	C80.824944,124.203583 79.771492,124.313957 79.088226,124.118767 
	C79.736320,123.620499 79.893936,123.356079 79.931259,123.019943 
z"/>
<path fill="#8981FF" opacity="1.000000" stroke="none" 
	d="
M119.519730,146.839691 
	C119.345421,147.728790 118.842110,148.732590 118.338791,149.736374 
	C118.170609,149.162842 118.002441,148.589325 117.867081,147.747253 
	C118.330162,147.303925 118.760437,147.129150 119.519730,146.839691 
z"/>
<path fill="#EEEDFF" opacity="1.000000" stroke="none" 
	d="
M66.468521,153.971741 
	C66.794212,154.255661 66.801720,154.543350 66.727058,155.257812 
	C65.998344,155.763306 65.351784,155.842026 64.538887,155.815033 
	C64.324890,155.420181 64.277237,155.131027 64.235443,154.402283 
	C64.877640,153.966965 65.513985,153.971252 66.468521,153.971741 
z"/>
<path fill="#E6E5FF" opacity="1.000000" stroke="none" 
	d="
M93.196732,86.239449 
	C93.307411,85.402985 93.614784,84.800705 94.025360,83.870979 
	C94.128563,83.543526 94.577797,83.725014 94.785843,83.849045 
	C94.460411,84.806602 93.926926,85.640121 93.196732,86.239449 
z"/>
<path fill="#7F77FF" opacity="1.000000" stroke="none" 
	d="
M117.380646,155.122223 
	C117.642738,154.757248 118.259895,154.364410 118.954926,154.241943 
	C118.600449,154.706345 118.168083,154.900360 117.380646,155.122223 
z"/>
<path fill="#E5E4FF" opacity="1.000000" stroke="none" 
	d="
M37.328865,153.994141 
	C37.651985,154.123245 37.715652,154.310074 37.881195,154.774902 
	C37.496288,155.180954 37.009502,155.309006 36.522717,155.437073 
	C36.704948,154.975327 36.887177,154.513596 37.328865,153.994141 
z"/>
<path fill="#D4D1FF" opacity="1.000000" stroke="none" 
	d="
M86.902679,78.246994 
	C87.282768,78.191910 87.573265,78.385956 88.008400,78.805656 
	C87.677780,79.245033 87.202522,79.458755 86.727257,79.672485 
	C86.755867,79.280357 86.784477,78.888245 86.902679,78.246994 
z"/>
<path fill="#101010" opacity="1.000000" stroke="none" 
	d="
M56.914501,96.113602 
	C57.697201,96.072502 58.299713,96.126915 58.902222,96.181335 
	C58.923275,96.394951 58.944324,96.608566 58.965378,96.822182 
	C58.373943,96.822182 57.782513,96.822182 56.882011,96.702957 
	C56.572945,96.583740 56.734310,96.209129 56.914501,96.113602 
z"/>
<path fill="#1C1C1C" opacity="1.000000" stroke="none" 
	d="
M75.027771,125.814865 
	C75.177254,125.033943 75.349236,124.624069 75.521225,124.214203 
	C75.563629,125.004555 75.606033,125.794907 75.648438,126.585258 
	C75.549889,126.573654 75.424812,126.595566 75.358582,126.543137 
	C75.237450,126.447250 75.151115,126.307419 75.027771,125.814865 
z"/>
<path fill="#CDCDCD" opacity="1.000000" stroke="none" 
	d="
M76.464172,122.504944 
	C76.109650,122.533562 75.893661,122.419533 75.677666,122.305496 
	C75.882034,122.104332 76.086395,121.903168 76.290764,121.701996 
	C76.394745,121.922096 76.498726,122.142197 76.464172,122.504944 
z"/>
<path fill="#0E0E0E" opacity="1.000000" stroke="none" 
	d="
M130.406998,105.910675 
	C130.916992,105.688751 131.785583,105.550621 132.811005,105.659454 
	C132.233765,105.935768 131.499680,105.965118 130.406998,105.910675 
z"/>
<path fill="#0E0E0E" opacity="1.000000" stroke="none" 
	d="
M138.114075,101.626595 
	C137.825302,101.088470 137.662445,100.180779 137.784515,99.122269 
	C138.126297,99.733307 138.183151,100.495171 138.114075,101.626595 
z"/>
<path fill="#EEEDFF" opacity="1.000000" stroke="none" 
	d="
M85.744606,129.988281 
	C85.904976,130.179398 85.826210,130.360886 85.591843,130.796234 
	C85.174385,130.777786 84.912537,130.505463 84.650688,130.233154 
	C84.935616,130.148315 85.220551,130.063492 85.744606,129.988281 
z"/>
<path fill="#D4D1FF" opacity="1.000000" stroke="none" 
	d="
M90.222458,81.001297 
	C90.761192,80.992897 90.957062,81.155968 91.116783,81.609398 
	C90.761459,81.559860 90.361115,81.317528 90.222458,81.001297 
z"/>
<path fill="#1A1A1A" opacity="1.000000" stroke="none" 
	d="
M136.228088,63.455299 
	C136.008484,63.390602 135.879333,63.407539 135.750198,63.424477 
	C135.939651,63.461964 136.129089,63.499447 136.228088,63.455299 
z"/>
<path fill="#080808" opacity="1.000000" stroke="none" 
	d="
M62.248322,81.511795 
	C62.502480,81.506493 62.787369,81.536125 63.072258,81.565750 
	C62.959682,81.634438 62.847107,81.703133 62.475864,81.694031 
	C62.217197,81.616234 62.279049,81.546722 62.248322,81.511795 
z"/>
<path fill="#FDFDFD" opacity="1.000000" stroke="none" 
	d="
M79.728897,123.124481 
	C79.893936,123.356079 79.736320,123.620499 79.234238,123.889610 
	C79.103722,123.665314 79.275887,123.419647 79.728897,123.124481 
z"/>
<path fill="#0E0E0E" opacity="1.000000" stroke="none" 
	d="
M119.318947,103.774338 
	C120.226395,101.227318 121.139130,99.019005 122.517212,95.684807 
	C123.468727,100.789223 122.138023,103.465187 119.318947,103.774338 
z"/>
<path fill="#0E0E0E" opacity="1.000000" stroke="none" 
	d="
M123.518784,95.408539 
	C123.575760,94.937340 123.809113,94.650566 124.042473,94.363785 
	C124.223106,94.552750 124.403732,94.741707 124.584366,94.930672 
	C124.287964,95.151436 123.991570,95.372192 123.518784,95.408539 
z"/>
<path fill="#1A1A1A" opacity="1.000000" stroke="none" 
	d="
M132.912872,96.096268 
	C133.123245,95.963737 133.553787,95.965630 133.774170,96.238617 
	C133.998581,96.688957 134.002579,96.866295 134.006592,97.043633 
	C134.006592,97.043633 133.996704,97.529083 133.983612,97.771622 
	C133.547836,97.419052 133.125153,96.823929 132.912872,96.096268 
z"/>
<path fill="#303030" opacity="1.000000" stroke="none" 
	d="
M64.009979,103.655388 
	C62.338463,104.678856 60.367203,106.269562 59.997910,102.378311 
	C59.978905,102.021584 60.000744,101.998154 60.185326,101.906197 
	C60.250450,101.547424 60.130985,101.280617 60.011520,101.013802 
	C60.011520,101.013802 59.999722,100.999298 60.007168,100.741501 
	C60.013939,100.316605 60.013268,100.149506 60.012592,99.982399 
	C60.012592,99.982399 59.998772,99.999634 60.336594,99.996979 
	C61.131191,99.921921 61.587967,99.849518 62.044743,99.777107 
	C62.696182,100.954529 63.347626,102.131958 64.009979,103.655388 
z"/>
<path fill="#101010" opacity="1.000000" stroke="none" 
	d="
M66.999084,88.000916 
	C70.581009,89.219269 70.016228,91.820282 68.771393,94.672440 
	C68.122505,92.610046 67.473618,90.547646 66.912369,88.242622 
	C67.000000,88.000000 66.999084,88.000916 66.999084,88.000916 
z"/>
<path fill="#101010" opacity="1.000000" stroke="none" 
	d="
M72.000305,99.999695 
	C73.170525,101.571953 74.340744,103.144218 75.510956,104.716476 
	C74.815002,105.061523 74.119049,105.406570 73.423088,105.751617 
	C72.947647,104.095039 72.472206,102.438461 71.998383,100.390945 
	C72.000000,100.000000 72.000305,99.999695 72.000305,99.999695 
z"/>
<path fill="#101010" opacity="1.000000" stroke="none" 
	d="
M71.999847,100.000153 
	C71.489655,99.751869 70.966805,99.523880 70.488716,99.224434 
	C70.439034,99.193314 70.655075,98.737961 70.747826,98.479454 
	C71.143051,98.792824 71.538277,99.106201 71.966904,99.709641 
	C72.000305,99.999695 72.000000,100.000000 71.999847,100.000153 
z"/>
<path fill="#101010" opacity="1.000000" stroke="none" 
	d="
M67.000458,87.999542 
	C66.483223,87.744041 65.952477,87.509644 65.467514,87.202873 
	C65.417557,87.171265 65.640785,86.707787 65.737251,86.444702 
	C66.137726,86.766106 66.538193,87.087509 66.968872,87.704910 
	C66.999084,88.000916 67.000000,88.000000 67.000458,87.999542 
z"/>
<path fill="#101010" opacity="1.000000" stroke="none" 
	d="
M62.025604,99.574280 
	C61.587967,99.849518 61.131191,99.921921 60.327621,100.003418 
	C60.448513,99.688560 60.916191,99.364601 61.681824,99.002762 
	C61.979778,98.964867 62.006462,99.371452 62.025604,99.574280 
z"/>
<path fill="#0E0E0E" opacity="1.000000" stroke="none" 
	d="
M134.192169,96.944969 
	C134.002579,96.866295 133.998581,96.688957 133.989349,96.245346 
	C134.115326,96.268158 134.246536,96.557236 134.192169,96.944969 
z"/>
<path fill="#101010" opacity="1.000000" stroke="none" 
	d="
M60.029724,101.253830 
	C60.130985,101.280617 60.250450,101.547424 60.195122,101.894379 
	C60.020332,101.974518 60.047924,101.493866 60.029724,101.253830 
z"/>
<path fill="#101010" opacity="1.000000" stroke="none" 
	d="
M59.847145,100.065674 
	C60.013268,100.149506 60.013939,100.316605 60.001854,100.733803 
	C59.886623,100.705574 59.784161,100.427261 59.847145,100.065674 
z"/>
</svg>